<svg width="129" height="32" viewBox="0 0 129 32" fill="none" xmlns="http://www.w3.org/2000/svg">
<path d="M14.8733 6.25876V2.25876H1.97331V29.7411H14.8733V25.7411C12.2307 25.7411 9.69637 24.7148 7.82783 22.8879C5.95926 21.0611 4.90951 18.5835 4.90951 15.9999C4.90951 13.4164 5.95926 10.9387 7.82783 9.11189C9.69637 7.28506 12.2307 6.25876 14.8733 6.25876Z" fill="#2C3131"/>
<path d="M14.8739 6.25876V25.7411C17.5165 25.7411 20.0508 24.7148 21.9194 22.8879C23.788 21.0611 24.8377 18.5835 24.8377 15.9999C24.8377 13.4164 23.788 10.9387 21.9194 9.11189C20.0508 7.28506 17.5165 6.25876 14.8739 6.25876Z" fill="#2C3131"/>
<path d="M37.7535 24.122C37.0988 24.122 36.4859 23.9904 35.9147 23.7273C35.35 23.4641 34.8879 23.0309 34.5285 22.4276C34.1883 21.8436 34.0182 21.0863 34.0182 20.1557V13.6479H36.9833V19.3085C36.9833 20.0659 37.1726 20.605 37.5513 20.9259C37.93 21.2468 38.3888 21.4072 38.9279 21.4072C39.7238 21.3045 40.3046 21.0093 40.6704 20.5215C41.0362 20.0338 41.2191 19.4497 41.2191 18.7694V13.6479H44.165V24.0065H41.2191V22.1773C40.4618 23.4738 39.3066 24.122 37.7535 24.122ZM50.0018 24.0065H47.0368V13.6479H50.0018V15.5156C50.7335 14.232 51.8759 13.5709 53.429 13.5324V16.3242L53.0054 16.305C52.5112 16.305 52.0331 16.3916 51.571 16.5649C51.1153 16.7318 50.7399 17.0173 50.4447 17.4217C50.1495 17.826 50.0018 18.3587 50.0018 19.0197V24.0065ZM61.2078 24.2182C59.1798 24.2182 57.4951 23.554 56.1537 22.2255C54.8124 20.897 54.1417 19.2315 54.1417 17.2291C54.1417 15.2781 54.8252 13.6383 56.1922 12.3098C57.5592 10.9813 59.2696 10.3171 61.3233 10.3171C63.3257 10.3171 65.0971 11.0679 66.6374 12.5697L64.866 14.7454C63.7878 13.5645 62.6198 12.9741 61.3618 12.9741C60.2195 12.9741 59.2504 13.3623 58.4545 14.1389C57.6587 14.9155 57.2608 15.9327 57.2608 17.1906C57.2608 17.7233 57.3474 18.2432 57.5207 18.7502C57.694 19.2572 57.9507 19.7129 58.2909 20.1172C58.631 20.5215 59.0578 20.8456 59.5712 21.0895C60.0847 21.327 60.6815 21.4457 61.3618 21.4457C62.5684 21.4457 63.7365 20.913 64.866 19.8476L66.6566 21.7923C64.9751 23.4096 63.1589 24.2182 61.2078 24.2182ZM71.3803 24.0065H68.4152V13.6479H71.3803V15.5156C72.1119 14.232 73.2543 13.5709 74.8074 13.5324V16.3242L74.3838 16.305C73.8897 16.305 73.4115 16.3916 72.9494 16.5649C72.4938 16.7318 72.1183 17.0173 71.8231 17.4217C71.5279 17.826 71.3803 18.3587 71.3803 19.0197V24.0065ZM78.1273 27.8765C77.0363 27.8765 76.0993 27.5427 75.3163 26.8753L76.5678 24.7381C77.0042 25.1103 77.4534 25.2965 77.9155 25.2965C78.5445 25.2965 79.0002 24.9884 79.2826 24.3723L79.5714 23.7947L75.2778 13.6479H78.3391L81.0539 20.7718L83.4991 13.6479H86.4642L81.9203 25.1617C81.1887 26.9715 79.9243 27.8765 78.1273 27.8765ZM90.8243 27.7417H87.8592V13.6479H90.8243V15.169C91.6072 14.0908 92.6983 13.5517 94.0974 13.5517C94.7264 13.5517 95.3328 13.6544 95.9169 13.8597C96.5009 14.0587 97.0208 14.3732 97.4764 14.8032C97.9321 15.2332 98.2947 15.7851 98.5643 16.459C98.8338 17.1329 98.9686 17.9415 98.9686 18.885C98.9686 20.3996 98.545 21.6511 97.6978 22.6394C96.8507 23.6278 95.6698 24.122 94.1552 24.122C92.7175 24.122 91.6072 23.5829 90.8243 22.5047V27.7417ZM93.4043 21.6575C94.2514 21.6575 94.89 21.3783 95.32 20.82C95.75 20.2616 95.965 19.5845 95.965 18.7887C95.965 18.0314 95.7532 17.3671 95.3296 16.7959C94.9061 16.2247 94.2643 15.9391 93.4043 15.9391C92.5443 15.9391 91.8993 16.2215 91.4693 16.7863C91.0393 17.3511 90.8243 18.0185 90.8243 18.7887C90.8243 19.7514 91.0778 20.4702 91.5848 20.9451C92.0918 21.42 92.6983 21.6575 93.4043 21.6575ZM104.641 24.1412C103.716 24.1412 102.943 23.8877 102.321 23.3807C101.698 22.8737 101.387 22.0618 101.387 20.9451V16.1509H99.9427V14.11H101.387V11.2605H104.333V14.11H107.144V16.1702H104.333V20.4445C104.333 21.2403 104.647 21.6382 105.276 21.6382C105.687 21.6382 106.168 21.5099 106.72 21.2532L107.336 23.4288C106.515 23.9038 105.616 24.1412 104.641 24.1412ZM113.726 24.122C112.519 24.122 111.502 23.8845 110.674 23.4096C109.808 22.9026 109.172 22.2479 108.768 21.4457C108.364 20.6435 108.162 19.7706 108.162 18.8272C108.162 17.672 108.409 16.7029 108.903 15.9199C109.436 15.1048 110.126 14.5079 110.973 14.1293C111.82 13.7442 112.738 13.5517 113.726 13.5517C115.305 13.5517 116.624 14.0009 117.683 14.8994C118.742 15.7979 119.271 17.1072 119.271 18.8272C119.271 19.5075 119.162 20.1653 118.944 20.8007C118.732 21.4297 118.398 21.9944 117.943 22.495C117.493 22.9956 116.919 23.3935 116.219 23.6888C115.52 23.9776 114.689 24.122 113.726 24.122ZM113.726 21.7153C114.432 21.7153 115.038 21.4746 115.545 20.9932C116.052 20.5119 116.306 19.8027 116.306 18.8657C116.306 17.9287 116.052 17.2195 115.545 16.7382C115.038 16.2568 114.432 16.0162 113.726 16.0162C113.007 16.0162 112.394 16.2568 111.887 16.7382C111.38 17.2195 111.127 17.9287 111.127 18.8657C111.127 19.8027 111.38 20.5119 111.887 20.9932C112.394 21.4746 113.007 21.7153 113.726 21.7153Z" fill="#2C3131"/>
<path d="M124.687 12.9318C125.857 12.9318 126.805 12.0047 126.805 10.8612C126.805 9.71768 125.857 8.79062 124.687 8.79062C123.517 8.79062 122.569 9.71768 122.569 10.8612C122.569 12.0047 123.517 12.9318 124.687 12.9318Z" fill="#2C3131"/>
</svg>
